<svg id="Layer_3" enable-background="new 0 0 64 64" height="512" viewBox="0 0 64 64" width="512" xmlns="http://www.w3.org/2000/svg"><g><path d="m60 31h-11v-29c0-.552-.447-1-1-1h-34c-.266 0-.52.105-.707.293l-12 12c-.188.187-.293.442-.293.707v48c0 .552.447 1 1 1h46c.553 0 1-.448 1-1v-3h11c1.654 0 3-1.346 3-3v-22c0-1.654-1.346-3-3-3zm1 3v1h-36v-1c0-.551.448-1 1-1h34c.552 0 1 .449 1 1zm-36 3h36v4h-36zm-12-32.586v8.586h-8.586zm34 56.586h-44v-46h11c.553 0 1-.448 1-1v-11h32v28h-21c-1.654 0-3 1.346-3 3v22c0 1.654 1.346 3 3 3h21zm13-4h-34c-.552 0-1-.449-1-1v-13h36v13c0 .551-.448 1-1 1z"/><path d="m36.92 49.198c.054.262.08.531.08.802 0 2.206-1.794 4-4 4s-4-1.794-4-4 1.794-4 4-4c.557 0 1.095.112 1.6.333l.8-1.833c-.758-.332-1.566-.5-2.4-.5-3.309 0-6 2.691-6 6s2.691 6 6 6 6-2.691 6-6c0-.403-.04-.807-.119-1.198z"/><path d="m31.832 48.445-1.664 1.109 2 3c.183.273.487.44.815.445h.017c.322 0 .626-.156.813-.419l5-7-1.627-1.162-4.158 5.821z"/><path d="m55 47c-.531 0-1.036.109-1.5.297-.464-.188-.969-.297-1.5-.297-2.206 0-4 1.794-4 4s1.794 4 4 4c.531 0 1.036-.109 1.5-.297.464.188.969.297 1.5.297 2.206 0 4-1.794 4-4s-1.794-4-4-4zm-2 4c0-.503.193-.957.5-1.309.307.352.5.806.5 1.309s-.193.957-.5 1.309c-.307-.352-.5-.806-.5-1.309zm-3 0c0-.937.65-1.72 1.521-1.936-.322.577-.521 1.23-.521 1.936s.199 1.359.521 1.936c-.871-.216-1.521-.999-1.521-1.936zm5.479 1.936c.322-.577.521-1.23.521-1.936s-.199-1.359-.521-1.936c.871.216 1.521.999 1.521 1.936s-.65 1.72-1.521 1.936z"/><path d="m33 29c6.617 0 12-5.383 12-12s-5.383-12-12-12-12 5.383-12 12 5.383 12 12 12zm0-22c5.514 0 10 4.486 10 10s-4.486 10-10 10-10-4.486-10-10 4.486-10 10-10z"/><path d="m33 22c-1.103 0-2-.897-2-2h-2c0 1.858 1.279 3.411 3 3.858v2.142h2v-2.142c1.721-.447 3-2 3-3.858 0-2.206-1.794-4-4-4-1.103 0-2-.897-2-2s.897-2 2-2 2 .897 2 2h2c0-1.858-1.279-3.411-3-3.858v-2.142h-2v2.142c-1.721.447-3 2-3 3.858 0 2.206 1.794 4 4 4 1.103 0 2 .897 2 2s-.897 2-2 2z"/><path d="m19 27h2v2h-2z"/><path d="m5 27h12v2h-12z"/><path d="m5 23h2v2h-2z"/><path d="m9 23h12v2h-12z"/><path d="m19 57h2v2h-2z"/><path d="m5 57h12v2h-12z"/><path d="m5 53h2v2h-2z"/><path d="m9 53h12v2h-12z"/></g></svg>