<?xml version="1.0" encoding="utf-8"?>
<!-- Generator: Adobe Illustrator 24.3.0, SVG Export Plug-In . SVG Version: 6.00 Build 0)  -->
<svg version="1.1" id="Layer_1" xmlns="http://www.w3.org/2000/svg" xmlns:xlink="http://www.w3.org/1999/xlink" x="0px" y="0px"
	 viewBox="0 0 921.26 187.09" style="enable-background:new 0 0 921.26 187.09;" xml:space="preserve">
<style type="text/css">
	.st0{fill:url(#SVGID_1_);}
	.st1{fill:url(#SVGID_2_);}
	.st2{fill:#0D0E0E;}
	.st3{fill:#070707;}
	.st4{fill:#010101;}
	.st5{font-family:'Avenir-Heavy';}
	.st6{font-size:108.2625px;}
</style>
<g>
	<linearGradient id="SVGID_1_" gradientUnits="userSpaceOnUse" x1="16.978" y1="120.4731" x2="35.1296" y2="120.4731">
		<stop  offset="0" style="stop-color:#010101"/>
		<stop  offset="0.0928" style="stop-color:#2A261F"/>
		<stop  offset="0.2149" style="stop-color:#4E4432"/>
		<stop  offset="0.3402" style="stop-color:#715F40"/>
		<stop  offset="0.4666" style="stop-color:#937A4B"/>
		<stop  offset="0.5945" style="stop-color:#B09052"/>
		<stop  offset="0.7246" style="stop-color:#C7A056"/>
		<stop  offset="0.858" style="stop-color:#D5AC58"/>
		<stop  offset="1" style="stop-color:#DCB15A"/>
	</linearGradient>
	<path class="st0" d="M28.54,113.38h-4.97c-3.64,0-6.59,3.18-6.59,7.1c0,3.92,2.95,7.1,6.59,7.1h4.97c3.64,0,6.59-3.18,6.59-7.1
		C35.13,116.55,32.18,113.38,28.54,113.38z"/>
	<linearGradient id="SVGID_2_" gradientUnits="userSpaceOnUse" x1="12.3639" y1="112.5812" x2="162.502" y2="112.5812">
		<stop  offset="0" style="stop-color:#010101"/>
		<stop  offset="0.0928" style="stop-color:#2A261F"/>
		<stop  offset="0.2149" style="stop-color:#4E4432"/>
		<stop  offset="0.3402" style="stop-color:#715F40"/>
		<stop  offset="0.4666" style="stop-color:#937A4B"/>
		<stop  offset="0.5945" style="stop-color:#B09052"/>
		<stop  offset="0.7246" style="stop-color:#C7A056"/>
		<stop  offset="0.858" style="stop-color:#D5AC58"/>
		<stop  offset="1" style="stop-color:#DCB15A"/>
	</linearGradient>
	<path class="st1" d="M160.6,97.78l-0.64-23.4l-0.46-16.81c-0.08-2.93-2.31-5.27-5.04-5.27H66.69c-2.41,0-4.44,1.84-4.92,4.3H19.18
		c-3.51,0-6.58,2.86-6.8,6.64c-0.24,4.13,2.8,7.56,6.58,7.56h5.78l47.39-0.06c3.64,0,6.59,3.18,6.59,7.1s-2.95,7.1-6.59,7.1
		l-32.96-0.06c-0.3,0-0.59,0.02-0.87,0.06c-3.23,0.45-5.72,3.43-5.72,7.03c0,3.92,2.95,7.1,6.59,7.1l24.65,0.11
		c3.65,0,6.59,3.17,6.59,7.1c0,3.92-2.95,7.1-6.59,7.1l-18.06,0.02c-3.79,0-6.83,3.44-6.58,7.57c0.23,3.77,3.29,6.62,6.8,6.62
		l10.72-0.03c3.51-0.01,6.59,2.83,6.84,6.61c0.01,0.18,0.02,0.36,0.02,0.54c0,1.77-0.6,3.39-1.6,4.63c-1.68,2.1-2.67,4.74-2.74,7.51
		l-0.56,20.44c-0.09,3.06,2.19,5.58,5.04,5.58h93.77c2.84,0,5.12-2.53,5.04-5.58L160.6,97.78z"/>
</g>
<g>
	<path class="st2" d="M181.51,75.27l-20.91,22.5l-0.64-23.4l10.36-11.15c3.09-3.33,8.1-3.33,11.19,0
		C184.6,66.55,184.6,71.94,181.51,75.27z"/>
	<path class="st2" d="M160.6,97.78l-41.22,44.38c-1.55,1.67-3.57,2.5-5.6,2.5s-4.05-0.83-5.59-2.5L86.31,118.6
		c-3.08-3.33-3.08-8.71,0-12.04c3.09-3.33,8.1-3.33,11.19,0l16.29,17.53l46.18-49.71L160.6,97.78z"/>
</g>
<path class="st3" d="M110.1,11.92c-4.44,0-8.67,0.95-12.54,2.68C85.47,20.01,77.8,32.99,77.8,47.08l10.1-0.15
	c0-12.86,9.27-23.79,21.21-24.34c0.33-0.02,0.66-0.02,0.99-0.02c0.33,0,0.67,0.01,1,0.02c11.94,0.55,21.21,11.48,21.21,24.34
	l10.1,0.15c0-14.1-7.67-27.08-19.76-32.48C118.78,12.87,114.54,11.92,110.1,11.92z"/>
<g>
	<path id="path1057" class="st4" d="M723.64,159.27c-16.46-1.49-26.66-16.84-21.64-33c4.7-15.04,20.7-19.82,31.38-21.18
		c4.1-0.5,8.61-0.74,13.61-0.89c0.63-0.02,1.17-0.54,1.22-1.22c0.04-0.43,0.05-0.88,0.05-1.13c-0.01-1.77-0.92-3.67-2.22-5.01
		c-4.93-5.05-19.94-5.13-31.44,0.16c-1.76,0.81-3.25,1.39-3.32,1.29c-0.07-0.1-1.11-3.62-2.32-7.82l-1.86-6.46
		c-0.19-0.67,0.12-1.39,0.73-1.65l2.32-1.02c8.86-3.9,18.8-5.65,29.98-5.28c12.38,0.41,19.39,3.13,25.41,9.83
		c3.52,3.92,5.48,7.72,6.87,13.28c0.92,3.67,0.96,4.84,1.11,31.24l0.15,26.07c0,0.75-0.56,1.36-1.26,1.36h-10.8H750.8
		c-0.69,0-1.26-0.61-1.26-1.35v-2.06c0-1.88-0.1-3.41-0.22-3.41c-0.12,0-1.14,0.78-2.26,1.74
		C741.17,157.79,732.83,160.1,723.64,159.27L723.64,159.27z M741.81,140.16c2.93-1.49,5.34-3.85,6.54-6.39
		c0.82-1.74,0.94-2.82,0.96-8.32l0.02-4.92c0-0.77-0.59-1.39-1.3-1.36l-2.41,0.1c-8.11,0.32-14.21,2.3-17.29,5.61
		c-4.88,5.23-3.18,13.88,3.17,16.15C734.35,142.05,738.85,141.67,741.81,140.16L741.81,140.16z M866.47,158.57
		c-4.17-1.01-8.88-3.68-11.38-6.47c-2.55-2.84-4.14-6.13-5.4-11.23c-0.85-3.44-0.95-5.36-1.18-24.46l-0.32-19.04
		c-0.01-0.74-0.58-1.33-1.26-1.33l-8.43,0.04c-11.09,0.05-13.6,0.07-18.38,2.61c-3.73,1.97-7.13,5.52-9.07,9.46l-1.17,2.37
		c-0.1,0.19-0.15,0.41-0.15,0.63l-0.12,23.2l-0.12,22.19c0,0.75-0.57,1.35-1.26,1.35h-11.21h-11.2c-0.7,0-1.26-0.61-1.26-1.35
		v-38.88V78.75c0-0.75,0.56-1.35,1.26-1.35h11.22h11.22c0.69,0,1.26,0.61,1.26,1.35v3.81v2.06c0,1.18,1.31,1.8,2.12,0.99l0.17-0.17
		c2.81-2.81,7.25-5.35,11.67-6.68c2.8-0.84,5.1-1.04,14.18-1.24l9.6-0.22c0.68-0.02,1.23-0.62,1.23-1.35v-9.59V56.8
		c0-0.75,0.56-1.35,1.26-1.35l7.39,0c4.76,0,10.27,0.14,12.26,0.32l2.45,0.21c0.65,0.06,1.16,0.64,1.16,1.35v9.41v9.3
		c0,0.75,0.56,1.35,1.26,1.35h7.72h7.72c0.69,0,1.26,0.61,1.26,1.35v7.66l0.04,8.26c0,0.75-0.56,1.36-1.26,1.36h-7.33h-7.94
		c-0.69,0-1.25,0.6-1.26,1.34l-0.12,14.4c-0.17,20.72,0.27,23.47,4.2,26.19c1.44,1,2.27,1.14,7.64,1.29l4.79,0.13
		c0.68,0.02,1.23,0.62,1.23,1.35v8.63v8.59c0,0.75-0.57,1.36-1.26,1.35l-9.57-0.03C872.62,159.26,868.42,159.04,866.47,158.57
		L866.47,158.57z M573.25,156.28c0.14-0.87,3.02-23.42,6.4-50.11s6.25-49.02,6.37-49.62l0.01-0.03c0.13-0.62,0.64-1.06,1.23-1.06
		h12.93h13.04c0.54,0,1.02,0.37,1.19,0.92l1.29,4.08c0.87,2.75,5.13,16.5,9.47,30.56c4.34,14.06,7.98,25.67,8.1,25.8
		c0.27,0.3-0.75,3.31,10.58-31.36l9.42-28.85c0.18-0.54,0.65-0.9,1.18-0.91l13.17-0.12c7.73-0.07,14.06-0.07,14.07,0
		c0.01,0.07,2.82,23.06,6.24,51.09l6.04,49.45c0.1,0.81-0.48,1.52-1.24,1.53l-12.33,0.12c-7.56,0.07-13.84,0.03-13.95-0.09
		c-0.11-0.12-1.9-13.93-3.98-30.69c-2.08-16.76-3.89-30.59-4.02-30.73c-0.13-0.14-4.35,12.52-9.38,28.13
		c-5.03,15.61-9.53,29.53-10.01,30.94l-0.56,1.67c-0.18,0.54-0.65,0.89-1.18,0.89h-8.2h-8.17c-0.54,0-1.02-0.37-1.19-0.93
		l-3.65-11.87c-2.17-7.04-6.38-20.75-9.36-30.45c-2.98-9.71-5.54-17.5-5.69-17.31c-0.15,0.19-2.01,13.89-4.14,30.45l-3.73,28.95
		c-0.09,0.67-0.62,1.17-1.25,1.17h-8.93h-8.53C573.71,157.86,573.12,157.11,573.25,156.28L573.25,156.28z"/>
	<path class="st4" d="M226.03,88.55h38.91v-9.14h-58.26c-5.23,0.23-10.97,2.34-10.97,12.41v52.63c0,10.06,5.74,12.16,10.97,12.4
		h58.26v-9.14h-38.91c-4.95-0.32-7.03-2.56-7.03-8.67v-20.98h45.27V109H219V97.23C219,91.1,221.08,88.87,226.03,88.55"/>
	<text transform="matrix(0.9289 0 0 1 271.5352 156.8531)" class="st5 st6">CLAIR</text>
</g>
</svg>
